<svg width="232" height="73" viewBox="0 0 232 73" fill="none" xmlns="http://www.w3.org/2000/svg">
<path d="M106.331 34.6709H111.066V58.6083H123.863L123.5 62.6982H106.331V34.6709Z" fill="#e8e1ef"/>
<path d="M134.302 45.7542C132.998 45.7493 131.731 46.1836 130.705 46.987C129.619 47.8157 128.944 49.1234 128.681 50.9103H137.826C138.655 50.9103 139.069 50.5374 139.069 49.7915C139.069 48.7486 138.63 47.8133 137.752 46.9855C136.873 46.1578 135.723 45.7474 134.302 45.7542ZM135.064 63.0894C133.003 63.0894 131.165 62.6512 129.549 61.7748C127.961 60.9213 126.643 59.6431 125.743 58.0837C124.821 56.5091 124.359 54.6803 124.359 52.5974C124.358 50.5145 124.813 48.6999 125.724 47.1535C126.605 45.6338 127.883 44.3815 129.421 43.531C130.99 42.6589 132.76 42.2103 134.556 42.2296C136.347 42.2296 137.898 42.6366 139.209 43.4507C140.459 44.2053 141.499 45.2598 142.236 46.5181C142.919 47.656 143.286 48.9547 143.299 50.2808C143.299 51.5896 142.937 52.5706 142.214 53.224C141.491 53.8775 140.529 54.2046 139.328 54.2056H128.776C129.069 55.861 129.825 57.1557 131.045 58.0895C132.265 59.0234 133.728 59.4907 135.436 59.4917C137.815 59.4917 139.847 58.7176 141.532 57.1693L143.378 59.892C142.317 60.9539 141.037 61.7732 139.628 62.2933C138.167 62.8321 136.621 63.1032 135.064 63.0937V63.0894Z" fill="#e8e1ef"/>
<path d="M149.805 56.5279C149.805 57.5446 150.159 58.3236 150.869 58.865C151.578 59.4064 152.466 59.6801 153.531 59.6859C154.371 59.6956 155.202 59.5112 155.958 59.1469C156.671 58.8049 157.285 58.2883 157.744 57.6454C158.195 57.0156 158.434 56.2591 158.426 55.4851V53.8783C157.785 53.6303 157.121 53.4472 156.443 53.332C155.747 53.2125 155.042 53.152 154.336 53.1509C152.839 53.1509 151.709 53.4713 150.946 54.1121C150.584 54.3985 150.292 54.7649 150.095 55.1827C149.896 55.6031 149.797 56.0633 149.805 56.5279V56.5279ZM152.172 63.1009C150.113 63.1009 148.427 62.5347 147.116 61.4022C145.804 60.2697 145.149 58.7682 145.15 56.8975C145.13 55.6544 145.502 54.4365 146.213 53.4153C146.966 52.3661 147.993 51.5423 149.181 51.033C150.45 50.4584 151.914 50.1716 153.572 50.1726C154.447 50.1722 155.319 50.2519 156.179 50.4107C156.953 50.5461 157.708 50.7741 158.428 51.0899V50.2456C158.428 48.9106 157.98 47.8565 157.084 47.0833C156.188 46.3101 154.939 45.925 153.335 45.9279C152.217 45.9219 151.108 46.1256 150.065 46.5282C149.02 46.9391 148.051 47.5212 147.198 48.2504L145.433 45.5291C147.775 43.4143 150.821 42.2435 153.979 42.2441C155.853 42.2441 157.457 42.5913 158.792 43.2856C160.071 43.9242 161.139 44.9177 161.866 46.147C162.583 47.3947 162.95 48.8118 162.93 50.25V62.6978H158.916L158.758 59.9766C158.144 60.853 157.274 61.594 156.15 62.1997C155.026 62.8054 153.7 63.1039 152.172 63.0952V63.1009Z" fill="#e8e1ef"/>
<path d="M175.457 59.4124C177.035 59.4124 178.379 58.8116 179.489 57.61C180.6 56.4083 181.154 54.7003 181.151 52.4859C181.151 50.4313 180.642 48.8245 179.624 47.6657C179.161 47.11 178.578 46.6652 177.919 46.3638C177.261 46.0625 176.543 45.9124 175.818 45.9246C174.293 45.9246 173.049 46.4447 172.086 47.4847C171.123 48.5246 170.644 49.8461 170.649 51.4489V57.331C171.874 58.7186 173.477 59.4124 175.457 59.4124ZM166.072 54.3834V42.6381H170.17L170.331 45.9217C170.954 44.7912 171.887 43.8607 173.02 43.2384C174.205 42.5681 175.547 42.2229 176.909 42.2379C178.525 42.218 180.113 42.6627 181.483 43.519C182.861 44.3927 183.974 45.6242 184.703 47.0815C185.493 48.6035 185.887 50.3519 185.886 52.3267C185.886 54.4915 185.452 56.3796 184.583 57.9912C183.785 59.5322 182.589 60.8319 181.117 61.7553C179.687 62.6464 178.031 63.1116 176.345 63.0962C175.273 63.1054 174.207 62.9295 173.194 62.5762C172.235 62.2393 171.365 61.69 170.649 60.9695V70.699H166.077V54.3834" fill="#e8e1ef"/>
<path d="M23.3595 34.6733L14.04 49.7182L4.71902 34.6733H0V62.686H4.68389V42.5828L12.6919 55.3885H15.3851L23.3946 42.5828V62.686H28.0712V34.6733H23.3595Z" fill="#e8e1ef"/>
<path d="M35.4769 56.5285C35.4769 57.5451 35.8316 58.3241 36.5411 58.8655C37.2505 59.407 38.138 59.6802 39.2036 59.685C40.0433 59.6947 40.874 59.5103 41.6304 59.146C42.3456 58.8053 42.9621 58.2885 43.422 57.6444C43.8725 57.0145 44.1108 56.258 44.1026 55.4841V53.8774C43.46 53.6278 42.7935 53.4447 42.1134 53.3311C41.4177 53.2117 40.7131 53.1511 40.0071 53.15C38.5112 53.15 37.3817 53.4703 36.6186 54.1111C36.2568 54.3987 35.9658 54.7652 35.7679 55.1825C35.57 55.5997 35.4705 56.0567 35.4769 56.5183V56.5285ZM37.8452 63.1015C35.7824 63.1015 34.0976 62.5348 32.791 61.4013C31.4844 60.2678 30.8291 58.7667 30.8252 56.8981C30.8037 55.6551 31.1733 54.4367 31.882 53.4143C32.6352 52.3643 33.6624 51.5403 34.8519 51.032C36.1205 50.4565 37.5842 50.1698 39.2431 50.1717C40.117 50.1713 40.9891 50.251 41.8485 50.4098C42.6225 50.5459 43.3774 50.7744 44.0968 51.0904V50.2462C44.0968 48.914 43.6489 47.8604 42.7531 47.0853C41.8558 46.3096 40.6087 45.9241 39.003 45.9241C37.8845 45.9179 36.7748 46.1216 35.7316 46.5244C34.6865 46.9344 33.7177 47.5165 32.8656 48.2465L31.1092 45.5224C33.4504 43.4072 36.4962 42.2362 39.6544 42.2373C41.5279 42.2373 43.1317 42.5844 44.4656 43.2787C45.7447 43.9177 46.812 44.9112 47.5394 46.1402C48.2583 47.3883 48.6264 48.8068 48.605 50.2462V62.6984H44.5886L44.429 59.9772C43.8162 60.8643 42.9473 61.6048 41.8222 62.1988C40.697 62.7928 39.3714 63.0918 37.8452 63.0957V63.1015Z" fill="#e8e1ef"/>
<path d="M61.1087 58.7734C62.6066 58.7734 63.8234 58.2928 64.7592 57.3317C65.695 56.3706 66.1629 55.1563 66.1629 53.6888V47.5234C65.5466 46.989 64.8309 46.581 64.0566 46.3227C63.2463 46.0515 62.3966 45.9162 61.542 45.9225C60.7694 45.9077 60.0023 46.055 59.2905 46.355C58.5787 46.6549 57.938 47.1007 57.4099 47.6636C56.2867 48.8253 55.7247 50.432 55.7237 52.4838C55.7237 54.3797 56.2321 55.9008 57.2489 57.0469C57.7238 57.6019 58.3165 58.0444 58.9842 58.3423C59.6518 58.6402 60.3776 58.786 61.1087 58.7691V58.7734ZM60.3461 71.1044C58.6161 71.1128 56.8984 70.8125 55.2743 70.2178C53.7359 69.6613 52.3242 68.8042 51.1218 67.6967L52.966 64.733C53.9114 65.566 54.9985 66.2234 56.176 66.6742C57.4579 67.1551 58.8186 67.3924 60.188 67.3738C61.8186 67.3738 63.2228 66.9405 64.4006 66.0738C65.5784 65.2072 66.1663 63.9194 66.1644 62.2104V59.6148C65.5523 60.5158 64.707 61.2346 63.7184 61.6948C62.6734 62.2031 61.4702 62.4567 60.109 62.4558C58.4948 62.4741 56.9072 62.0448 55.5231 61.2157C54.1417 60.3867 53.0064 59.2054 52.2341 57.7933C51.4193 56.3404 51.0115 54.6524 51.0105 52.7292C51.0105 50.7018 51.4447 48.9003 52.3132 47.3247C53.138 45.7937 54.354 44.5077 55.8378 43.5971C57.314 42.6904 59.0167 42.218 60.7501 42.2343C61.8078 42.2326 62.8582 42.4083 63.8575 42.7543C64.8286 43.0814 65.7244 43.5989 66.4922 44.2763L66.6547 42.6404H70.7531V62.0161C70.7531 64.0708 70.2598 65.7724 69.2733 67.1211C68.2957 68.4595 66.9636 69.4994 65.4267 70.1243C63.8157 70.7845 62.089 71.1176 60.3475 71.1044H60.3461Z" fill="#e8e1ef"/>
<path d="M74.065 62.6984V42.6362H78.6434V62.6984H74.065ZM76.3542 39.2401C75.9627 39.2522 75.5727 39.1858 75.2074 39.0448C74.8421 38.9038 74.5089 38.6911 74.2274 38.4192C73.6877 37.8675 73.3855 37.127 73.3855 36.356C73.3855 35.585 73.6877 34.8445 74.2274 34.2928C74.8109 33.7671 75.5695 33.4767 76.3556 33.478C77.1417 33.4794 77.8993 33.7724 78.481 34.3002C78.897 34.7073 79.1798 35.2304 79.2925 35.8009C79.4052 36.3714 79.3425 36.9626 79.1125 37.4968C78.8825 38.031 78.496 38.4834 78.0037 38.7945C77.5115 39.1056 76.9365 39.2609 76.3542 39.2401V39.2401Z" fill="#e8e1ef"/>
<path d="M91.704 63.097C89.8727 63.1182 88.0639 62.693 86.4346 61.8584C84.8601 61.0446 83.5427 59.8108 82.6289 58.2944C81.6805 56.7441 81.2062 54.874 81.2062 52.684C81.2062 50.6293 81.6941 48.8142 82.6699 47.2386C83.6193 45.6908 84.9614 44.4205 86.5605 43.5563C88.0044 42.7829 89.6016 42.3371 91.2381 42.2505C92.8745 42.1639 94.5099 42.4387 96.0277 43.0553C97.2439 43.5445 98.3337 44.3015 99.2158 45.2696L97.25 48.1135C96.538 47.4976 95.7321 46.9991 94.8626 46.6368C94.0034 46.2863 93.083 46.1095 92.1548 46.1168C91.0903 46.1091 90.0414 46.3709 89.1059 46.8778C88.1578 47.3964 87.3681 48.1616 86.821 49.0922C86.2277 50.066 85.9315 51.2608 85.9325 52.6767C85.9325 54.1179 86.2194 55.3185 86.7932 56.2786C87.3304 57.2026 88.1158 57.9585 89.0605 58.4609C89.9865 58.9517 91.02 59.2056 92.0684 59.2C93.9429 59.2 95.6691 58.5324 97.247 57.1974L99.1704 60.0413C98.269 61.0056 97.1676 61.7618 95.9429 62.2572C94.6014 62.8204 93.1594 63.1062 91.704 63.097Z" fill="#e8e1ef"/>
<path d="M196.158 41.4839V72.1915L200.822 69.5141V44.1715L196.158 41.4839Z" fill="#e8e1ef"/>
<path d="M165.021 18.0988L191.498 33.3555V27.9817L169.688 15.4126L165.021 18.0988Z" fill="#e8e1ef"/>
<path fill-rule="evenodd" clip-rule="evenodd" d="M200.811 30.6735L200.798 -0.000488281L196.158 2.53671V31.918C196.158 33.1814 196.491 34.4227 197.124 35.517C197.757 36.6113 198.667 37.5201 199.763 38.1522L227.334 54.0355L232 51.3464L203.126 34.7108L231.961 18.0943L227.297 15.4067L200.811 30.6735Z" fill="#e8e1ef"/>
</svg>
