<?xml version="1.0" encoding="utf-8"?>
<!-- Generator: Adobe Illustrator 19.0.0, SVG Export Plug-In . SVG Version: 6.00 Build 0)  -->
<svg version="1.1" id="layer" xmlns="http://www.w3.org/2000/svg" xmlns:xlink="http://www.w3.org/1999/xlink" x="0px" y="0px"
	 viewBox="-153 -46 652 652" style="enable-background:new -153 -46 652 652;" xml:space="preserve">
<style type="text/css">
	.st0{fill:#315CFD;}
	.st1{fill:#FFFFFF;}
</style>
<path class="st0" d="M134.8,303.9v-78.5c0-13.1-10.6-23.8-23.8-23.8h-214c-13.1,0-23.8,10.6-23.8,23.8v78.5
	c0,13.1,10.6,23.8,23.8,23.8H51.9l42,28l-8.4-28h25.6C124.1,327.7,134.8,317,134.8,303.9L134.8,303.9z M-81.7,280.5
	c1.2,2.2,2.9,3.9,4.9,4.9c2.1,1.2,4.3,1.7,6.9,1.7c2.5,0,4.9-0.6,6.9-1.8c2.1-1.2,3.8-2.9,4.9-5.1c1.2-2.2,1.9-4.7,1.9-7.6v-35.3
	c0-0.5,0.2-0.9,0.5-1.2c0.3-0.3,0.7-0.5,1.2-0.5h8.6c0.5,0,1,0.2,1.3,0.5c0.2,0.2,0.3,0.4,0.4,0.5c0.1,0.2,0.2,0.5,0.1,0.7v35.2
	c0,5.6-1.2,10.3-3.5,14.2c-2.3,3.8-5.4,6.6-9.3,8.4c-3.9,1.9-8.3,2.7-13,2.7s-9.1-0.9-13-2.8c-3.9-1.9-7-4.7-9.3-8.5
	c-2.3-3.8-3.5-8.5-3.5-14.1v-35.1c0-0.5,0.2-0.8,0.5-1.2c0.2-0.2,0.3-0.3,0.5-0.4c0.2-0.1,0.4-0.2,0.6-0.2h9c0.5,0,1,0.2,1.2,0.5
	c0.2,0.3,0.4,0.7,0.4,1.2v35.3C-83.5,275.7-82.9,278.3-81.7,280.5z M51.1,282.2c0.5,0,0.8,0.2,1,0.5l4.2,5.2
	c0.3,0.5,0.5,0.8,0.5,1.2c0,0.5-0.2,0.8-0.6,1.2c-3.1,2.7-6.1,4.6-9.2,5.9c-3,1.2-6.3,1.8-9.8,1.8c-4.7,0-9.2-1.2-13.3-3.6
	c-4.2-2.5-7.5-5.7-10-9.9c-2.5-4.2-3.7-8.6-3.7-13.5c0-4.9,1.2-9.5,3.5-13.6c2.3-4.2,5.5-7.4,9.6-9.9c4.1-2.5,8.6-3.6,13.7-3.6
	c4.1,0,8.1,1,12.1,3c4,2,7.3,5,10,9.1c2.6,4.1,3.9,9.1,3.9,15c0,1.3-0.2,2.3-0.5,2.9c-0.3,0.6-0.8,1-1.2,1.1
	c-0.5,0.2-1.4,0.2-2.5,0.2h-37c0.5,2.5,1.6,4.6,3.1,6.5c1.5,1.9,3.3,3.3,5.5,4.3c2.2,1,4.5,1.5,6.9,1.5c1.9,0,3.5-0.2,5-0.6
	c1.4-0.4,2.5-0.8,3.5-1.4c1.1-0.6,2.1-1.3,3-2.1l1.2-0.9C50.4,282.2,50.8,282.2,51.1,282.2z M30.7,255.4c-2,1-3.7,2.4-5.2,4.1
	c-1.5,1.7-2.5,3.6-3.3,5.8h29.4c-1.2-3.4-3.2-6.2-5.7-8.3c-2.5-2.1-5.6-3.1-8.9-3.1C34.8,253.8,32.7,254.4,30.7,255.4z"/>
<path class="st1" d="M-36,286.6c0,0.2,0.1,0.5,0.2,0.8c0.2,0.3,0.3,0.6,0.5,0.9c1.9,3,4.6,5.4,7.8,7.1c3.2,1.7,6.9,2.5,11,2.5
	c3.2,0,6.4-0.6,9.4-1.8c3-1.2,5.4-3,7.3-5.5c1.9-2.4,2.8-5.3,2.8-8.8c0-3.6-1.2-6.9-3.5-9.8c-2.3-2.9-5.8-5-10.5-6.5
	c-0.6-0.2-1.2-0.4-1.7-0.5c-0.5-0.2-1-0.3-1.4-0.4c-2.3-0.6-4-1.2-5.1-1.6c-1.1-0.5-2-1-2.6-1.6c-0.7-0.7-1-1.5-1-2.7
	c0-1.5,0.6-2.6,1.9-3.5c1.2-0.9,2.9-1.4,5.1-1.4c2.1,0,3.8,0.4,5.2,1.1c1.4,0.7,2.7,1.9,4,3.3c0.5,0.5,0.8,0.8,1.3,0.8
	c0.3,0,0.7-0.2,1.1-0.5l4.9-4c0.5-0.5,0.8-0.8,0.8-1.2c0-0.3-0.2-0.8-0.6-1.4c-1.9-2.3-4.2-4.3-6.9-5.9c-2.8-1.6-6.1-2.4-10-2.4
	c-3.6,0-6.8,0.7-9.6,2.2c-2.8,1.5-4.9,3.3-6.4,5.6c-1.5,2.3-2.2,4.6-2.2,7c0,2.9,0.5,5.5,1.7,7.6c1.2,2.1,2.9,3.9,5.2,5.3
	c2.3,1.5,5.3,2.8,9.1,3.9c1.6,0.5,2.6,0.8,2.9,0.8c1.9,0.5,3.2,1,4.1,1.4c0.9,0.4,1.6,0.8,2.1,1.5c0.5,0.7,0.8,1.6,0.8,2.9
	c0,1.2-0.5,2.2-1.3,3.2c-0.9,0.9-2,1.6-3.4,2.2c-1.3,0.5-2.8,0.8-4.2,0.8c-2.3,0-4.2-0.5-5.8-1.6c-1.5-1.1-3-2.5-4.3-4.4
	c-0.5-0.6-0.9-0.9-1.5-0.9c-0.3,0-0.6,0.2-0.9,0.3l-5.3,3.8C-35.8,285.6-36,286-36,286.6z M80.1,244.3h-5.9c-1.1,0-1.6,0.6-1.6,1.8
	v49.2c0,1.2,0.5,1.7,1.6,1.7h8.5c1.2,0,1.7-0.5,1.7-1.7v-28.9c0-2.6,0.5-4.8,1.5-6.6c1-1.8,2.2-3.1,3.9-3.9c1.5-0.8,3.2-1.3,5-1.3
	s3.4,0.3,4.9,0.9c1.5,0.7,3,1.5,4.4,2.4c0.5,0.3,0.9,0.5,1.3,0.5c0.5,0,0.8-0.2,1.2-0.7l3.9-5.5c0.3-0.4,0.5-0.8,0.5-1.2
	c0-0.5-0.3-1.1-0.9-1.7c-1.5-1.3-3.5-2.6-6-3.9c-2.4-1.2-5-1.9-7.9-1.9c-2.6,0-5,0.6-7.2,1.9c-2.2,1.2-3.9,2.9-5.3,5.2l-0.8-4.6
	c-0.2-0.8-0.4-1.4-0.8-1.6C81.4,244.4,80.9,244.3,80.1,244.3z"/>
<path class="st0" d="M150,235.7h44.1c1.1,0,1.6,0.5,1.6,1.6v7.8c0,1.1-0.5,1.7-1.6,1.7h-16.3v48.5c0,1.1-0.5,1.6-1.6,1.6h-8.9
	c-1.1,0-1.6-0.5-1.6-1.6v-48.6h-15.8c-1.1,0-1.6-0.5-1.6-1.7v-7.7C148.3,236.3,148.9,235.7,150,235.7z M235.1,282.2
	c0.5,0,0.8,0.2,1,0.5l4.2,5.2c0.3,0.5,0.5,0.8,0.5,1.2c0,0.5-0.2,0.8-0.6,1.2c-3.1,2.7-6.1,4.6-9.2,5.9c-3.1,1.2-6.3,1.8-9.8,1.8
	c-4.7,0-9.2-1.2-13.3-3.6c-4.2-2.5-7.5-5.7-10-9.9c-2.5-4.2-3.7-8.6-3.7-13.5c0-4.9,1.2-9.5,3.5-13.6c2.3-4.2,5.5-7.4,9.6-9.9
	c4.1-2.5,8.6-3.6,13.7-3.6c4.1,0,8.2,1,12.1,3c4,2,7.3,5,10,9.1c2.6,4.1,3.9,9.1,3.9,15c0,1.3-0.2,2.3-0.5,2.9
	c-0.3,0.6-0.8,1-1.2,1.1c-0.5,0.2-1.4,0.2-2.5,0.2h-37c0.5,2.5,1.6,4.6,3.1,6.5c1.5,1.9,3.3,3.3,5.5,4.3c2.2,1,4.5,1.5,7,1.5
	c1.9,0,3.5-0.2,5-0.6c1.4-0.4,2.5-0.8,3.5-1.4c1.1-0.6,2.1-1.3,3-2.1l1.2-0.9C234.4,282.2,234.8,282.2,235.1,282.2z M214.6,255.4
	c-2,1-3.7,2.4-5.2,4.1c-1.5,1.7-2.5,3.6-3.3,5.8h29.5c-1.2-3.4-3.2-6.2-5.7-8.3c-2.5-2.1-5.6-3.1-9-3.1
	C218.8,253.8,216.5,254.4,214.6,255.4L214.6,255.4z M250.6,287.3c-0.1-0.2-0.2-0.5-0.2-0.8c0-0.5,0.2-1,0.7-1.5l5.2-4
	c0.2-0.2,0.5-0.4,0.9-0.3c0.5,0,1.1,0.3,1.5,0.9c1.3,1.9,2.8,3.3,4.3,4.4c1.5,1.1,3.5,1.6,5.8,1.6c1.5,0,2.9-0.2,4.2-0.8
	c1.4-0.5,2.5-1.2,3.4-2.2c0.8-0.9,1.3-2,1.3-3.2c0-1.2-0.2-2.2-0.8-2.9c-0.5-0.7-1.2-1.2-2.1-1.5s-2.2-0.8-4.1-1.4
	c-0.3-0.1-1.2-0.3-2.9-0.8c-3.8-1.2-6.8-2.5-9.1-3.9c-2.3-1.5-4-3.2-5.2-5.3c-1.2-2.1-1.7-4.6-1.7-7.6c0-2.4,0.8-4.7,2.2-7
	c1.5-2.3,3.6-4.2,6.4-5.6c2.8-1.5,5.9-2.2,9.6-2.2c3.9,0,7.3,0.8,10,2.4c2.8,1.6,5.1,3.5,6.9,5.9c0.5,0.5,0.6,1,0.6,1.4
	s-0.3,0.8-0.8,1.2l-4.9,4c-0.5,0.3-0.8,0.5-1.1,0.5c-0.4,0-0.8-0.3-1.3-0.8c-1.2-1.5-2.6-2.5-4-3.3c-1.4-0.7-3.2-1.1-5.2-1.1
	c-2.2,0-3.9,0.5-5.1,1.4c-1.2,0.9-1.9,2.1-1.9,3.5c0,1.2,0.3,2,1,2.7c0.7,0.7,1.5,1.2,2.6,1.6c1.1,0.5,2.9,0.9,5.1,1.6
	c0.5,0.1,0.9,0.2,1.4,0.4c0.5,0.2,1.1,0.3,1.7,0.5c4.7,1.4,8.2,3.5,10.5,6.5s3.5,6.2,3.5,9.8c0,3.4-0.9,6.3-2.8,8.8
	c-1.9,2.4-4.3,4.2-7.3,5.5c-3,1.2-6.2,1.9-9.4,1.8c-4.1,0-7.8-0.8-11-2.5c-3.2-1.7-5.8-4.1-7.8-7.1
	C250.9,287.9,250.7,287.6,250.6,287.3L250.6,287.3z M317.6,244.7c1.2,0,1.8,0.6,1.8,1.8v6.8c0,0.5-0.2,1-0.5,1.3
	c-0.4,0.3-0.8,0.5-1.4,0.5h-5.9v25.7c0,1.9,0.3,3.3,1,4.5c0.7,1.1,1.9,1.7,3.5,1.8l1.3,0.1c0.9,0.1,1.5,0.3,1.8,0.8s0.4,1,0.3,1.5
	v5.9c0,1.4-1.1,2.1-3.2,2.1c-3.2,0-6.1-0.6-8.6-1.9c-2.5-1.2-4.5-3-5.9-5.3c-1.4-2.3-2.1-5-2.1-8.1v-26.9h-4.8
	c-0.5,0-0.9-0.2-1.2-0.5c-0.4-0.3-0.5-0.8-0.5-1.3v-6.7c0-0.6,0.2-1.1,0.5-1.5c0.3-0.3,0.8-0.5,1.2-0.5h4.8V236c0-0.6,0.1-1,0.3-1.3
	c0.2-0.3,0.7-0.5,1.3-0.7l8.4-2.5c0.2-0.1,0.3-0.1,0.5-0.1c0.2,0,0.4,0.1,0.5,0.2c0.2,0.1,0.3,0.2,0.4,0.4c0.2,0.3,0.3,0.8,0.3,1.3
	v11.3L317.6,244.7z M330.7,225.4h7.2c1.5,0,2.3,0.8,2.3,2.6v7.3c0,0.8-0.2,1.5-0.5,1.8s-1,0.5-1.8,0.5h-7.2c-1.7,0-2.5-0.8-2.5-2.3
	v-7.3C328.1,226.3,329,225.4,330.7,225.4z M329,244.7c0.3-0.3,0.7-0.5,1.2-0.5h8.7c0.5,0,0.8,0.2,1.2,0.5c0.3,0.3,0.5,0.7,0.5,1.2
	v49.3c0,1.1-0.5,1.7-1.6,1.7h-8.7c-1.1,0-1.6-0.5-1.6-1.7V246C328.5,245.4,328.7,245,329,244.7L329,244.7z M360.8,296.5
	c-0.5,0.3-1.1,0.5-1.6,0.5h-7.6c-1.2,0-1.8-0.6-1.8-1.8V246c0-1.2,0.6-1.8,1.8-1.8h5.6c0.5,0,1.2,0.2,1.5,0.6
	c0.5,0.4,0.8,0.9,0.9,1.5l0.7,5.9c2-2.9,4.4-4.9,7.3-6.3s5.9-2.1,9.1-2.1c3.2,0,6.3,0.8,9.3,2.4c3,1.6,5.5,4.1,7.5,7.4
	c1.9,3.3,2.9,7.5,2.9,12.4v29.1c0,1.2-0.5,1.7-1.6,1.7h-8.3c-1.2,0-1.8-0.5-1.8-1.7v-28.7c0-2-0.5-3.9-1.5-5.6s-2.4-3.2-4.1-4.3
	c-1.8-1.1-3.7-1.6-5.9-1.6c-1.9,0-3.7,0.5-5.5,1.5c-1.9,1-3.3,2.4-4.5,4.2c-1.2,1.9-1.8,4-1.8,6.4V295
	C361.5,295.7,361.3,296.1,360.8,296.5z M453.7,301.9c-2.3,4.2-5.4,7.3-9.4,9.5s-8.6,3.2-13.8,3.2c-3.5,0-6.9-0.6-10.2-1.8
	c-3.4-1.2-6.3-2.8-8.6-4.8c-0.5-0.4-0.7-0.8-0.7-1.2c0-0.3,0.2-0.7,0.5-1.2l3.5-5c0.4-0.5,0.8-0.8,1.5-0.8c0.5,0,0.9,0.2,1.5,0.5
	c3.6,2.5,8.1,3.8,13.6,3.8c2.8,0,5.2-0.6,7.4-1.9c2.2-1.2,3.9-2.9,5.1-5.1c1.2-2.2,1.9-4.6,1.9-7.4v-0.2c-2.3,2.5-4.8,4.3-7.3,5.6
	c-2.5,1.2-5.6,1.9-9,1.9c-4.6,0-8.9-1.1-12.8-3.4c-4-2.2-7.2-5.4-9.6-9.4c-2.4-4-3.6-8.6-3.5-13.7c0-4.8,1.2-9.3,3.5-13.3
	c2.4-4.1,5.6-7.4,9.6-9.9c4-2.5,8.3-3.7,12.8-3.7c6.6,0,12.2,2.5,16.9,7.6l0.7-4.9c0.1-0.8,0.3-1.3,0.6-1.6c0.3-0.3,0.8-0.5,1.4-0.5
	h6.6c1,0,1.5,0.6,1.5,1.8v40.5C457.1,292.7,455.9,297.7,453.7,301.9z M443.9,262.5c-1.4-2.5-3.2-4.5-5.6-5.9c-2.4-1.5-5-2.2-8-2.2
	c-3.1,0-5.8,0.8-8.2,2.2c-2.4,1.5-4.2,3.5-5.6,6c-1.3,2.5-2,5.2-2,8.3c0,3.2,0.7,5.9,2.1,8.4s3.3,4.4,5.7,5.8c2.4,1.4,5.1,2.1,8,2.1
	c2.9,0,5.6-0.7,7.9-2.2c2.3-1.5,4.2-3.5,5.6-5.9c1.3-2.5,2-5.2,2-8.2C445.9,267.7,445.2,265,443.9,262.5L443.9,262.5z M467.1,244.3
	c-3.3,0-6,2.7-6,6s2.7,6,6,6c3.3,0,6-2.7,6-6C473.1,247.1,470.4,244.3,467.1,244.3z M467.1,255.1c-2.5,0-4.7-2.2-4.7-4.8
	s2.2-4.8,4.7-4.8c2.5,0,4.7,2.1,4.7,4.8C471.8,252.9,469.6,255.1,467.1,255.1z M464.8,247.1c0,0,0.1-0.1,0.2-0.1h2.8
	c0.4,0,0.8,0.1,1.1,0.3c0.3,0.2,0.5,0.5,0.8,0.8c0.2,0.3,0.3,0.7,0.3,1.1s-0.1,0.7-0.3,1.1c-0.2,0.3-0.5,0.6-0.8,0.8l1.2,2.4v0.1
	v0.1h-0.1h-1.2c-0.1,0-0.1,0-0.2,0c0,0-0.1-0.1-0.1-0.2l-1.1-2.2h-1.3v2.1c0,0.2-0.1,0.2-0.2,0.2H465c-0.2,0-0.2-0.1-0.2-0.2
	L464.8,247.1C464.7,247.1,464.7,247.1,464.8,247.1z M466,250.2h1.4c0.2,0,0.4-0.1,0.5-0.2c0.2-0.1,0.3-0.2,0.4-0.4
	c0.1-0.2,0.2-0.3,0.2-0.5c0-0.2-0.1-0.4-0.2-0.5c-0.1-0.2-0.2-0.3-0.4-0.4c-0.2-0.1-0.3-0.2-0.5-0.2H466V250.2z"/>
</svg>
